{"title":"CBGB - Punk From The Bowery [2003].avi [highateus]","uid":4569603,"size":733092352,"categoryP":"video","categoryS":"music_videos","magnet":"?xt=urn:btih:7e247448b9422293f128f1e1e5fbe3e30062cca2&amp;dn=CBGB+-+Punk+From+The+Bowery+%5B2003%5D.avi+%5Bhighateus%5D&amp;tr=udp%3A%2F%2Ftracker.openbittorrent.com%3A80&amp;tr=udp%3A%2F%2Fopen.demonii.com%3A1337&amp;tr=udp%3A%2F%2Ftracker.coppersurfer.tk%3A6969&amp;tr=udp%3A%2F%2Fexodus.desync.com%3A6969","seeders":0,"leechers":1,"uploader":"highateus","files":1,"time":1229010561,"description":"CBGB - Punk From The Bowery [2003]\n\nLive performances from real punk/hardcore bands at the one and only CBGB's.\n\nfeaturing:\n\nAgnostic Front\nCro-Mags\nMadball\nH2O\nPoison Idea\nHarley's War\nUK Subs\nThe Varukers\nChaos UK\nThe Vibrators\nMolotov Cocktail\nKraut\nAdrenaline O.D.\nEven Worse\nFurious George\n\n\n\nGeneral\n\nComplete name                    : CBGB - Punk From The Bowery [2003].avi\nFormat                           : AVI\nFormat/Info                      : Audio Video Interleave\nFile size                        : 699 MiB\nDuration                         : 1h 6mn\nOverall bit rate                 : 1461 Kbps\n\nVideo\n\nFormat                           : MPEG-4 Visual\nFormat profile                   : Streaming Video@L1\nFormat settings, BVOP            : Yes\nFormat settings, QPel            : No\nFormat settings, GMC             : No warppoints\nFormat settings, Matrix          : Default\nMuxing mode                      : Packed bitstream\nCodec ID                         : XVID\nCodec ID/Hint                    : XviD\nDuration                         : 1h 6mn\nBit rate                         : 1 260 Kbps\nWidth                            : 640 pixels\nHeight                           : 432 pixels\nDisplay aspect ratio             : 1.481\nFrame rate                       : 23.976 fps\nResolution                       : 24 bits\nColorimetry                      : 4:2:0\nScan type                        : Progressive\nBits/(Pixel*Frame)               : 0.190\nStream size                      : 603 MiB (86%)\nWriting library                  : XviD 1.1.2 (UTC 2006-11-01)\n\nAudio\n\nFormat                           : MPEG Audio\nFormat version                   : Version 1\nFormat profile                   : Layer 3\nCodec ID                         : 55\nCodec ID/Hint                    : MP3\nDuration                         : 1h 6mn\nBit rate mode                    : Constant\nBit rate                         : 192 Kbps\nChannel(s)                       : 2 channels\nSampling rate                    : 44.1 KHz\nResolution                       : 16 bits\nVideo delay                      : 26ms\nStream size                      : 91.9 MiB (13%)\nAlignment                        : Split accross interleaves\nInterleave, duration             : 42 ms (1.00 video frame)\nTitle                            : Audio Stream\n\n","torrent":{"xt":"urn:btih:7e247448b9422293f128f1e1e5fbe3e30062cca2","amp;dn":"CBGB+-+Punk+From+The+Bowery+%5B2003%5D.avi+%5Bhighateus%5D","amp;tr":["udp%3A%2F%2Ftracker.openbittorrent.com%3A80","udp%3A%2F%2Fopen.demonii.com%3A1337","udp%3A%2F%2Ftracker.coppersurfer.tk%3A6969","udp%3A%2F%2Fexodus.desync.com%3A6969"],"infoHash":"7e247448b9422293f128f1e1e5fbe3e30062cca2","infoHashBuffer":{"type":"Buffer","data":[126,36,116,72,185,66,34,147,241,40,241,225,229,251,227,227,0,98,204,162]},"announce":[],"urlList":[]}}